<mxfile host="app.diagrams.net" modified="2022-07-28T14:01:25.935Z" agent="5.0 (Linux; Android 12; SM-G970F) AppleWebKit/537.36 (KHTML, like Gecko) Chrome/103.0.0.0 Mobile Safari/537.36" etag="Jw1brUQpBgY5PFLfQgIf" version="20.2.1" type="github">
  <diagram id="DDOWYzTqhNagZJF6AAEe" name="Seite-1">
    <mxGraphModel dx="1053" dy="3097" grid="0" gridSize="10" guides="1" tooltips="1" connect="1" arrows="1" fold="1" page="0" pageScale="1" pageWidth="827" pageHeight="1169" math="0" shadow="0">
      <root>
        <mxCell id="0" />
        <mxCell id="1" parent="0" />
        <mxCell id="B8w67U5XRxIODHOIkPhB-4" value="" style="edgeStyle=none;curved=1;rounded=0;orthogonalLoop=1;jettySize=auto;html=1;endArrow=open;startSize=14;endSize=14;sourcePerimeterSpacing=8;targetPerimeterSpacing=8;" parent="1" source="B8w67U5XRxIODHOIkPhB-2" target="B8w67U5XRxIODHOIkPhB-3" edge="1">
          <mxGeometry relative="1" as="geometry" />
        </mxCell>
        <mxCell id="B8w67U5XRxIODHOIkPhB-2" value="" style="shape=note;whiteSpace=wrap;html=1;backgroundOutline=1;fontColor=#000000;darkOpacity=0.05;fillColor=#FFF9B2;strokeColor=none;fillStyle=solid;direction=west;gradientDirection=north;gradientColor=#FFF2A1;shadow=1;size=20;pointerEvents=1;hachureGap=4;" parent="1" vertex="1">
          <mxGeometry x="96" y="167" width="140" height="160" as="geometry" />
        </mxCell>
        <mxCell id="B8w67U5XRxIODHOIkPhB-6" value="" style="edgeStyle=none;curved=1;rounded=0;orthogonalLoop=1;jettySize=auto;html=1;endArrow=open;startSize=14;endSize=14;sourcePerimeterSpacing=8;targetPerimeterSpacing=8;" parent="1" source="B8w67U5XRxIODHOIkPhB-3" target="B8w67U5XRxIODHOIkPhB-5" edge="1">
          <mxGeometry relative="1" as="geometry" />
        </mxCell>
        <mxCell id="B8w67U5XRxIODHOIkPhB-3" value="" style="shape=note;whiteSpace=wrap;html=1;backgroundOutline=1;fontColor=#000000;darkOpacity=0.05;fillColor=#FFF9B2;strokeColor=none;fillStyle=solid;direction=west;gradientDirection=north;gradientColor=#FFF2A1;shadow=1;size=20;pointerEvents=1;hachureGap=4;" parent="1" vertex="1">
          <mxGeometry x="-111" y="316" width="140" height="160" as="geometry" />
        </mxCell>
        <mxCell id="B8w67U5XRxIODHOIkPhB-7" value="" style="edgeStyle=none;curved=1;rounded=0;orthogonalLoop=1;jettySize=auto;html=1;endArrow=open;startSize=14;endSize=14;sourcePerimeterSpacing=8;targetPerimeterSpacing=8;" parent="1" source="B8w67U5XRxIODHOIkPhB-5" edge="1">
          <mxGeometry relative="1" as="geometry">
            <mxPoint x="-52" y="-22" as="targetPoint" />
          </mxGeometry>
        </mxCell>
        <mxCell id="B8w67U5XRxIODHOIkPhB-11" value="" style="edgeStyle=none;curved=1;rounded=0;orthogonalLoop=1;jettySize=auto;html=1;endArrow=open;startSize=14;endSize=14;sourcePerimeterSpacing=8;targetPerimeterSpacing=8;" parent="1" source="B8w67U5XRxIODHOIkPhB-5" target="B8w67U5XRxIODHOIkPhB-10" edge="1">
          <mxGeometry relative="1" as="geometry" />
        </mxCell>
        <mxCell id="B8w67U5XRxIODHOIkPhB-5" value="" style="whiteSpace=wrap;html=1;hachureGap=4;" parent="1" vertex="1">
          <mxGeometry x="-101" y="136" width="120" height="60" as="geometry" />
        </mxCell>
        <mxCell id="B8w67U5XRxIODHOIkPhB-8" value="" style="edgeStyle=none;orthogonalLoop=1;jettySize=auto;html=1;rounded=0;endArrow=open;startSize=14;endSize=14;sourcePerimeterSpacing=8;targetPerimeterSpacing=8;curved=1;" parent="1" edge="1">
          <mxGeometry width="120" relative="1" as="geometry">
            <mxPoint x="12" y="247" as="sourcePoint" />
            <mxPoint x="132" y="247" as="targetPoint" />
            <Array as="points" />
          </mxGeometry>
        </mxCell>
        <mxCell id="B8w67U5XRxIODHOIkPhB-9" value="" style="ellipse;whiteSpace=wrap;html=1;hachureGap=4;" parent="1" vertex="1">
          <mxGeometry x="-153" y="-149" width="260" height="202" as="geometry" />
        </mxCell>
        <mxCell id="B8w67U5XRxIODHOIkPhB-10" value="" style="whiteSpace=wrap;html=1;hachureGap=4;" parent="1" vertex="1">
          <mxGeometry x="-341" y="136" width="148" height="60" as="geometry" />
        </mxCell>
        <mxCell id="B8w67U5XRxIODHOIkPhB-12" value="" style="edgeStyle=none;orthogonalLoop=1;jettySize=auto;html=1;shape=flexArrow;rounded=1;startSize=8;endSize=8;endArrow=open;sourcePerimeterSpacing=8;targetPerimeterSpacing=8;curved=1;" parent="1" edge="1">
          <mxGeometry width="140" relative="1" as="geometry">
            <mxPoint x="-247" y="261" as="sourcePoint" />
            <mxPoint x="-107" y="261" as="targetPoint" />
            <Array as="points">
              <mxPoint x="-242" y="227" />
              <mxPoint x="-187" y="292" />
            </Array>
          </mxGeometry>
        </mxCell>
        <mxCell id="B8w67U5XRxIODHOIkPhB-13" value="" style="ellipse;whiteSpace=wrap;html=1;hachureGap=4;" parent="1" vertex="1">
          <mxGeometry x="50" y="-323" width="120" height="60" as="geometry" />
        </mxCell>
        <mxCell id="Ei9yxal6Ff-1FfpdzfMt-1" value="" style="rounded=0;whiteSpace=wrap;html=1;hachureGap=4;" parent="1" vertex="1">
          <mxGeometry x="-256" y="-462" width="160" height="80" as="geometry" />
        </mxCell>
        <mxCell id="kzoBt28sFmEMXgLQblZO-1" value="" style="ellipse;whiteSpace=wrap;html=1;" vertex="1" parent="1">
          <mxGeometry x="-301" y="-784" width="320" height="502" as="geometry" />
        </mxCell>
        <mxCell id="kzoBt28sFmEMXgLQblZO-2" value="" style="whiteSpace=wrap;html=1;aspect=fixed;" vertex="1" parent="1">
          <mxGeometry x="-325" y="-801" width="640" height="640" as="geometry" />
        </mxCell>
      </root>
    </mxGraphModel>
  </diagram>
</mxfile>
